<svg id="Layer_1" data-name="Layer 1" xmlns="http://www.w3.org/2000/svg" viewBox="0 0 512 512"><defs><style>.cls-1{fill:#757889;}.cls-2{opacity:0.3;}.cls-3{fill:#fff;}.cls-4{fill:#e4e6ea;}.cls-5{fill:#2b374f;}.cls-6{fill:#ffb85a;}</style></defs><title>gate-filled</title><rect class="cls-1" x="32" y="108.8" width="64" height="358.4"/><rect class="cls-1" x="416" y="108.8" width="64" height="358.4"/><g class="cls-2"><path class="cls-3" d="M32,108.8V467.2H64V108.8Zm384,0V467.2h32V108.8Z"/></g><path class="cls-1" d="M416,204.8H358.4v-.06a218.08,218.08,0,0,0-204.8,0v.06H96V160h57.6v-.06a218.08,218.08,0,0,1,204.8,0V160H416Z"/><circle class="cls-4" cx="64" cy="76.8" r="32"/><rect class="cls-1" x="96" y="396.8" width="320" height="44.8"/><circle class="cls-4" cx="448" cy="76.8" r="32"/><path class="cls-5" d="M499.2,96H488.47a44.8,44.8,0,1,0-80.94,0H396.8a12.8,12.8,0,0,0,0,25.6h6.4v25.6h-32V121.6a12.8,12.8,0,1,0-25.6,0v18.1a229.56,229.56,0,0,0-25.6-9V96a12.8,12.8,0,1,0-25.6,0v28.84A231.66,231.66,0,0,0,268.8,122V76.8a12.8,12.8,0,1,0-25.6,0V122a231.66,231.66,0,0,0-25.6,2.87V96A12.8,12.8,0,1,0,192,96v34.66a229.56,229.56,0,0,0-25.6,9V121.6a12.8,12.8,0,1,0-25.6,0v25.6h-32V121.6h6.4a12.8,12.8,0,0,0,0-25.6H104.47a44.8,44.8,0,1,0-80.94,0H12.8a12.8,12.8,0,0,0,0,25.6h6.4V467.2A12.8,12.8,0,0,0,32,480H96a12.8,12.8,0,0,0,12.8-12.8V454.4H403.2v12.8A12.8,12.8,0,0,0,416,480h64a12.8,12.8,0,0,0,12.8-12.8V121.6h6.4a12.8,12.8,0,0,0,0-25.6ZM448,57.6a19.2,19.2,0,1,1-19.2,19.2A19.22,19.22,0,0,1,448,57.6Zm-339.2,160h32V384h-32Zm57.6-5A202.51,202.51,0,0,1,192,202.24V384H166.4Zm102.4-20.17a206,206,0,0,1,25.6,3.23V384H268.8ZM243.2,384H217.6V195.64a206,206,0,0,1,25.6-3.23ZM192,409.6v19.2H166.4V409.6Zm25.6,0h25.6v19.2H217.6Zm51.2,0h25.6v19.2H268.8Zm51.2,0h25.6v19.2H320Zm0-25.6V202.24a202.58,202.58,0,0,1,25.6,10.34V384Zm51.2-166.4h32V384h-32Zm32-44.8V192h-32V172.8Zm-57.6-5V184.5a229.56,229.56,0,0,0-25.6-9v-18A202.61,202.61,0,0,1,345.6,167.77Zm-51.2-16.94v18.81a231.55,231.55,0,0,0-25.6-2.87V147.61A206.09,206.09,0,0,1,294.4,150.84Zm-51.2-3.23v19.16a231.55,231.55,0,0,0-25.6,2.87V150.84A206,206,0,0,1,243.2,147.6ZM192,157.44v18a229.56,229.56,0,0,0-25.6,9V167.78A202.55,202.55,0,0,1,192,157.44ZM140.8,172.8V192h-32V172.8ZM64,57.6A19.2,19.2,0,1,1,44.8,76.8,19.22,19.22,0,0,1,64,57.6ZM44.8,454.4V121.6H83.2V454.4Zm64-44.8h32v19.2h-32Zm262.4,19.2V409.6h32v19.2Zm96,25.6H428.8V121.6h38.4Z"/><rect class="cls-6" x="204.8" y="262.4" width="102.4" height="44.8"/><path class="cls-5" d="M320,320H192V249.6H320ZM217.6,294.4h76.8V275.2H217.6Z"/></svg>